<svg width="21" height="20" viewBox="0 0 21 20" fill="none" xmlns="http://www.w3.org/2000/svg">
<path d="M15.1128 6.66658H14.2794V4.99992C14.2794 2.69992 12.4128 0.833252 10.1128 0.833252C7.81277 0.833252 5.94611 2.69992 5.94611 4.99992V6.66658H5.11277C4.19611 6.66658 3.44611 7.41658 3.44611 8.33325V16.6666C3.44611 17.5833 4.19611 18.3333 5.11277 18.3333H15.1128C16.0294 18.3333 16.7794 17.5833 16.7794 16.6666V8.33325C16.7794 7.41658 16.0294 6.66658 15.1128 6.66658ZM10.1128 14.1666C9.19611 14.1666 8.44611 13.4166 8.44611 12.4999C8.44611 11.5833 9.19611 10.8333 10.1128 10.8333C11.0294 10.8333 11.7794 11.5833 11.7794 12.4999C11.7794 13.4166 11.0294 14.1666 10.1128 14.1666ZM12.6961 6.66658H7.52944V4.99992C7.52944 3.57492 8.68777 2.41659 10.1128 2.41659C11.5378 2.41659 12.6961 3.57492 12.6961 4.99992V6.66658Z" fill="#A5B0C1"/>
</svg>
