<svg width="21" height="20" viewBox="0 0 21 20" fill="none" xmlns="http://www.w3.org/2000/svg">
<g clip-path="url(#clip0)">
<path d="M14.2795 17.5V15.8333C14.2795 14.9493 13.9283 14.1014 13.3032 13.4763C12.6781 12.8512 11.8302 12.5 10.9462 12.5H4.2795C3.39545 12.5 2.5476 12.8512 1.92248 13.4763C1.29736 14.1014 0.946167 14.9493 0.946167 15.8333V17.5" stroke="#FAFAFA" stroke-width="2" stroke-linecap="round" stroke-linejoin="round"/>
<path d="M7.61275 9.16667C9.4537 9.16667 10.9461 7.67428 10.9461 5.83333C10.9461 3.99238 9.4537 2.5 7.61275 2.5C5.7718 2.5 4.27942 3.99238 4.27942 5.83333C4.27942 7.67428 5.7718 9.16667 7.61275 9.16667Z" stroke="#FAFAFA" stroke-width="2" stroke-linecap="round" stroke-linejoin="round"/>
<path d="M19.2794 17.5001V15.8334C19.2789 15.0948 19.033 14.3774 18.5806 13.7937C18.1281 13.2099 17.4945 12.793 16.7794 12.6084" stroke="#FAFAFA" stroke-width="2" stroke-linecap="round" stroke-linejoin="round"/>
<path d="M13.4462 2.6084C14.1632 2.79198 14.7987 3.20898 15.2525 3.79366C15.7064 4.37833 15.9527 5.09742 15.9527 5.83757C15.9527 6.57771 15.7064 7.2968 15.2525 7.88147C14.7987 8.46615 14.1632 8.88315 13.4462 9.06673" stroke="#FAFAFA" stroke-width="2" stroke-linecap="round" stroke-linejoin="round"/>
</g>
<defs>
<clipPath id="clip0">
<rect width="20" height="20" fill="white" transform="translate(0.112793)"/>
</clipPath>
</defs>
</svg>
