<svg width="53" height="52" viewBox="0 0 53 52" fill="none" xmlns="http://www.w3.org/2000/svg">
<circle cx="26.1128" cy="26" r="26" fill="#3485FF"/>
<path d="M34.1128 35V33C34.1128 31.9391 33.6914 30.9217 32.9412 30.1716C32.1911 29.4214 31.1737 29 30.1128 29H22.1128C21.0519 29 20.0345 29.4214 19.2844 30.1716C18.5342 30.9217 18.1128 31.9391 18.1128 33V35" stroke="#FAFAFA" stroke-width="2" stroke-linecap="round" stroke-linejoin="round"/>
<path d="M26.1128 25C28.3219 25 30.1128 23.2091 30.1128 21C30.1128 18.7909 28.3219 17 26.1128 17C23.9037 17 22.1128 18.7909 22.1128 21C22.1128 23.2091 23.9037 25 26.1128 25Z" stroke="#FAFAFA" stroke-width="2" stroke-linecap="round" stroke-linejoin="round"/>
</svg>
