<svg width="21" height="20" viewBox="0 0 21 20" fill="none" xmlns="http://www.w3.org/2000/svg">
<g clip-path="url(#clip0)">
<path d="M16.7795 7.5H9.27946C8.35899 7.5 7.61279 8.24619 7.61279 9.16667V16.6667C7.61279 17.5871 8.35899 18.3333 9.27946 18.3333H16.7795C17.6999 18.3333 18.4461 17.5871 18.4461 16.6667V9.16667C18.4461 8.24619 17.6999 7.5 16.7795 7.5Z" stroke="#3485FF" stroke-width="2" stroke-linecap="round" stroke-linejoin="round"/>
<path d="M4.27942 12.5001H3.44609C3.00406 12.5001 2.58013 12.3245 2.26757 12.0119C1.95501 11.6994 1.77942 11.2754 1.77942 10.8334V3.33341C1.77942 2.89139 1.95501 2.46746 2.26757 2.1549C2.58013 1.84234 3.00406 1.66675 3.44609 1.66675H10.9461C11.3881 1.66675 11.812 1.84234 12.1246 2.1549C12.4372 2.46746 12.6128 2.89139 12.6128 3.33341V4.16675" stroke="#3485FF" stroke-width="2" stroke-linecap="round" stroke-linejoin="round"/>
</g>
<defs>
<clipPath id="clip0">
<rect width="20" height="20" fill="white" transform="translate(0.112793)"/>
</clipPath>
</defs>
</svg>
